<?xml version="1.0" standalone="no"?>
<!DOCTYPE svg PUBLIC "-//W3C//DTD SVG 20010904//EN"
 "http://www.w3.org/TR/2001/REC-SVG-20010904/DTD/svg10.dtd">
<svg version="1.0" xmlns="http://www.w3.org/2000/svg"
 width="610.000000pt" height="523.000000pt" viewBox="0 0 610.000000 523.000000"
 preserveAspectRatio="xMidYMid meet">

<g transform="translate(0.000000,523.000000) scale(0.100000,-0.100000)"
fill="#000000" stroke="none">
<path d="M1943 4982 c-100 -35 -171 -114 -193 -216 -8 -35 -10 -234 -8 -641 3
-544 4 -593 21 -629 27 -58 101 -131 160 -157 52 -24 52 -24 512 -26 253 -1
463 -2 468 -3 4 0 7 -74 7 -165 l0 -164 -707 -3 -708 -3 -57 -23 c-81 -33
-160 -108 -200 -190 l-33 -67 -3 -331 -3 -332 -352 -5 c-256 -3 -362 -7 -389
-17 -60 -21 -129 -81 -162 -140 l-31 -55 -3 -609 c-3 -688 -4 -677 69 -760 23
-26 65 -59 93 -74 l51 -27 814 -3 c704 -2 821 0 867 13 67 19 149 92 180 160
l24 50 0 611 c0 684 2 665 -71 748 -22 25 -65 57 -97 73 l-57 28 -358 3 -358
4 3 313 c3 299 4 315 24 341 11 15 33 37 48 48 27 21 28 21 1526 21 1498 0
1499 0 1526 -21 15 -11 37 -33 48 -48 20 -26 21 -42 24 -341 l3 -313 -358 -4
-358 -3 -57 -28 c-32 -16 -75 -48 -97 -73 -73 -83 -71 -64 -71 -748 l0 -611
24 -50 c31 -68 113 -141 180 -160 46 -13 163 -15 867 -13 l814 3 51 27 c28 15
70 48 93 74 73 83 72 72 69 760 l-3 609 -31 55 c-33 59 -102 119 -162 140 -27
10 -133 14 -389 17 l-352 5 -3 332 -3 331 -33 67 c-40 82 -119 157 -200 190
l-57 23 -707 3 -708 3 0 164 0 164 468 3 467 3 55 26 c66 31 120 84 152 148
l23 46 0 620 c0 609 0 621 -21 666 -31 66 -78 114 -142 146 l-57 28 -1040 2
c-978 2 -1043 1 -1092 -15z m2112 -227 l25 -24 0 -571 0 -572 -29 -29 -29 -29
-1002 0 -1002 0 -29 29 -29 29 0 572 0 571 25 24 24 25 1011 0 1011 0 24 -25z
m-1935 -2970 c19 -20 20 -33 21 -600 l1 -579 -26 -23 -27 -23 -780 0 -780 0
-24 25 -25 24 0 574 c0 604 -1 590 45 616 14 7 245 10 797 8 765 -2 778 -2
798 -22z m3399 10 c16 -8 31 -22 35 -30 3 -9 6 -273 6 -586 l0 -570 -25 -24
-24 -25 -780 0 -780 0 -26 23 -27 23 1 578 c1 608 1 598 46 616 11 5 363 9
783 9 651 1 767 -1 791 -14z"/>
</g>
</svg>
